ply
format ascii 1.0
comment Ejemplo de modelo base elfo
element vertex 8
property float x
property float y
property float z
property float red
property float green
property float blue
element face 12
property list uchar uint vertex_indices
end_header
0.0 0.0 0.0 0.9 0.9 0.8
1.0 0.0 0.0 0.9 0.9 0.8
1.0 1.2 0.0 0.9 0.9 0.8
0.0 1.2 0.0 0.9 0.9 0.8
0.0 0.0 1.0 0.9 0.9 0.8
1.0 0.0 1.0 0.9 0.9 0.8
1.0 1.2 1.0 0.9 0.9 0.8
0.0 1.2 1.0 0.9 0.9 0.8
3 0 1 2
3 0 2 3
3 4 5 6
3 4 6 7
3 0 4 7
3 0 7 3
3 1 5 6
3 1 6 2
3 0 1 5
3 0 5 4
3 3 2 6
3 3 6 7
